<svg xmlns="http://www.w3.org/2000/svg" version="1.1" xmlns:xlink="http://www.w3.org/1999/xlink" xmlns:svgjs="http://svgjs.dev/svgjs" width="1000" height="1000" viewBox="0 0 1000 1000"><rect width="1000" height="1000" fill="#ffffff"></rect><g transform="matrix(0.7,0,0,0.7,149.57577647302736,428.8487916144169)"><svg viewBox="0 0 396 81" data-background-color="#ffffff" preserveAspectRatio="xMidYMid meet" height="204" width="1000" xmlns="http://www.w3.org/2000/svg" xmlns:xlink="http://www.w3.org/1999/xlink"><g id="tight-bounds" transform="matrix(1,0,0,1,0.23998930954454067,-0.1411212938918993)"><svg viewBox="0 0 395.5199999999999 81.2822425877838" height="81.2822425877838" width="395.5199999999999"><g><svg viewBox="0 0 553.6606221915921 113.78129299221357" height="81.2822425877838" width="395.5199999999999"><g><rect width="4.708176133661046" height="113.78129299221357" x="141.1073776452058" y="0" fill="#ba3b0a" opacity="1" stroke-width="0" stroke="transparent" fill-opacity="1" class="rect-o-0" data-fill-palette-color="primary" rx="1%" id="o-0" data-palette-color="#ba3b0a"></rect></g><g transform="matrix(1,0,0,1,158.1406221915921,0.28303804226918317)"><svg viewBox="0 0 395.52 113.2152169076752" height="113.2152169076752" width="395.52"><g id="textblocktransform"><svg viewBox="0 0 395.52 113.2152169076752" height="113.2152169076752" width="395.52" id="textblock"><g><svg viewBox="0 0 395.52 113.2152169076752" height="113.2152169076752" width="395.52"><g transform="matrix(1,0,0,1,0,0)"><svg width="395.52" viewBox="3.699997901916504 -35 269.6999816894531 74.20000457763672" height="113.2152169076752" data-palette-color="#ba3b0a"><svg></svg><svg></svg><g class="wordmark-text-0" data-fill-palette-color="primary" id="text-0"><path xmlns="http://www.w3.org/2000/svg" d="M36.35-23.85c0 2.1-0.567 4-1.7 5.7-1.133 1.7-2.783 2.95-4.95 3.75v0l7.65 14.4h-12.4l-6.1-12.55h-4.1v12.55h-11.05v-34.4h21.05c2.467 0 4.577 0.473 6.33 1.42 1.747 0.953 3.06 2.237 3.94 3.85 0.887 1.62 1.33 3.38 1.33 5.28zM25.1-23.4c0-0.9-0.3-1.65-0.9-2.25-0.6-0.6-1.333-0.9-2.2-0.9v0h-7.25v6.35h7.25c0.867 0 1.6-0.31 2.2-0.93 0.6-0.613 0.9-1.37 0.9-2.27zM58.85-35c5.933 0 10.517 1.517 13.75 4.55 3.233 3.033 4.85 7.45 4.85 13.25v0c0 5.8-1.617 10.217-4.85 13.25-3.233 3.033-7.817 4.55-13.75 4.55v0c-5.933 0-10.507-1.51-13.72-4.53-3.22-3.013-4.83-7.437-4.83-13.27v0c0-5.833 1.61-10.26 4.83-13.28 3.213-3.013 7.787-4.52 13.72-4.52zM58.85-26.75c-2.367 0-4.167 0.717-5.4 2.15-1.233 1.433-1.85 3.367-1.85 5.8v0 3.2c0 2.433 0.617 4.367 1.85 5.8 1.233 1.433 3.033 2.15 5.4 2.15v0c2.367 0 4.177-0.717 5.43-2.15 1.247-1.433 1.87-3.367 1.87-5.8v0-3.2c0-2.433-0.623-4.367-1.87-5.8-1.253-1.433-3.063-2.15-5.43-2.15zM116.45 0h-11.7l-1.45-4.85h-12.05l-1.45 4.85h-11.3l12.55-34.4h12.85zM97.2-24.8l-3.65 12.25h7.45l-3.6-12.25zM161.1 0h-10.95v-12.4c0-1.533 0.06-3.11 0.18-4.73 0.113-1.613 0.237-2.97 0.37-4.07 0.133-1.1 0.217-1.8 0.25-2.1v0h-0.2l-6.35 23.3h-8.65l-6.4-23.25h-0.2c0.033 0.3 0.127 0.99 0.28 2.07 0.147 1.087 0.287 2.437 0.42 4.05 0.133 1.62 0.2 3.197 0.2 4.73v0 12.4h-10.15v-34.4h15.6l5.2 19.85h0.2l5.15-19.85h15.05zM167.8 0v-34.4h29.75v8.25h-18.7v4.75h16v7.9h-16v5.25h19.05v8.25zM236.55-23.85c0 2.1-0.567 4-1.7 5.7-1.133 1.7-2.783 2.95-4.95 3.75v0l7.65 14.4h-12.4l-6.1-12.55h-4.1v12.55h-11.05v-34.4h21.05c2.467 0 4.577 0.473 6.33 1.42 1.747 0.953 3.063 2.237 3.95 3.85 0.88 1.62 1.32 3.38 1.32 5.28zM225.3-23.4c0-0.9-0.3-1.65-0.9-2.25-0.6-0.6-1.333-0.9-2.2-0.9v0h-7.25v6.35h7.25c0.867 0 1.6-0.31 2.2-0.93 0.6-0.613 0.9-1.37 0.9-2.27zM257.25-35c4.4 0 8.017 0.89 10.85 2.67 2.833 1.787 4.283 4.43 4.35 7.93v0 0.6h-10.35v-0.2c0-1-0.367-1.833-1.1-2.5-0.733-0.667-1.85-1-3.35-1v0c-1.467 0-2.59 0.217-3.37 0.65-0.787 0.433-1.18 0.967-1.18 1.6v0c0 0.9 0.533 1.567 1.6 2 1.067 0.433 2.783 0.883 5.15 1.35v0c2.767 0.567 5.043 1.157 6.83 1.77 1.78 0.62 3.337 1.63 4.67 3.03 1.333 1.4 2.017 3.3 2.05 5.7v0c0 4.067-1.373 7.083-4.12 9.05-2.753 1.967-6.43 2.95-11.03 2.95v0c-5.367 0-9.54-0.9-12.52-2.7-2.987-1.8-4.48-4.983-4.48-9.55v0h10.45c0 1.733 0.45 2.89 1.35 3.47 0.9 0.587 2.3 0.88 4.2 0.88v0c1.4 0 2.56-0.15 3.48-0.45 0.913-0.3 1.37-0.917 1.37-1.85v0c0-0.833-0.507-1.46-1.52-1.88-1.02-0.413-2.68-0.853-4.98-1.32v0c-2.8-0.6-5.117-1.227-6.95-1.88-1.833-0.647-3.433-1.72-4.8-3.22-1.367-1.5-2.05-3.533-2.05-6.1v0c0-3.767 1.46-6.543 4.38-8.33 2.913-1.78 6.603-2.67 11.07-2.67z" fill="#ba3b0a" fill-rule="nonzero" stroke="none" stroke-width="1" stroke-linecap="butt" stroke-linejoin="miter" stroke-miterlimit="10" stroke-dasharray="" stroke-dashoffset="0" font-family="none" font-weight="none" font-size="none" text-anchor="none" style="mix-blend-mode: normal" data-fill-palette-color="primary" opacity="1"></path><path xmlns="http://www.w3.org/2000/svg" d="M36.35 14.75c0 2.1-0.567 4-1.7 5.7-1.133 1.7-2.783 2.95-4.95 3.75v0l7.65 14.4h-12.4l-6.1-12.55h-4.1v12.55h-11.05v-34.4h21.05c2.467 0 4.577 0.473 6.33 1.42 1.747 0.953 3.06 2.237 3.94 3.85 0.887 1.62 1.33 3.38 1.33 5.28zM25.1 15.2c0-0.9-0.3-1.65-0.9-2.25-0.6-0.6-1.333-0.9-2.2-0.9v0h-7.25v6.35h7.25c0.867 0 1.6-0.31 2.2-0.93 0.6-0.613 0.9-1.37 0.9-2.27zM58.85 3.6c5.933 0 10.517 1.517 13.75 4.55 3.233 3.033 4.85 7.45 4.85 13.25v0c0 5.8-1.617 10.217-4.85 13.25-3.233 3.033-7.817 4.55-13.75 4.55v0c-5.933 0-10.507-1.51-13.72-4.53-3.22-3.013-4.83-7.437-4.83-13.27v0c0-5.833 1.61-10.26 4.83-13.28 3.213-3.013 7.787-4.52 13.72-4.52zM58.85 11.85c-2.367 0-4.167 0.717-5.4 2.15-1.233 1.433-1.85 3.367-1.85 5.8v0 3.2c0 2.433 0.617 4.367 1.85 5.8 1.233 1.433 3.033 2.15 5.4 2.15v0c2.367 0 4.177-0.717 5.43-2.15 1.247-1.433 1.87-3.367 1.87-5.8v0-3.2c0-2.433-0.623-4.367-1.87-5.8-1.253-1.433-3.063-2.15-5.43-2.15zM117.65 24.75c0 4.7-1.483 8.283-4.45 10.75-2.967 2.467-7.183 3.7-12.65 3.7v0c-5.467 0-9.69-1.233-12.67-3.7-2.987-2.467-4.48-6.05-4.48-10.75v0-20.55h11.05v20.4c0 1.933 0.517 3.473 1.55 4.62 1.033 1.153 2.533 1.73 4.5 1.73v0c1.967 0 3.477-0.583 4.53-1.75 1.047-1.167 1.57-2.7 1.57-4.6v0-20.4h11.05zM156.1 13h-11.25v25.6h-11.05v-25.6h-11.3v-8.8h33.6zM161.15 38.6v-34.4h29.75v8.25h-18.7v4.75h16v7.9h-16v5.25h19.05v8.25z" fill="#ba3b0a" fill-rule="nonzero" stroke="none" stroke-width="1" stroke-linecap="butt" stroke-linejoin="miter" stroke-miterlimit="10" stroke-dasharray="" stroke-dashoffset="0" font-family="none" font-weight="none" font-size="none" text-anchor="none" style="mix-blend-mode: normal" data-fill-palette-color="primary" opacity="1"></path></g></svg></g></svg></g></svg></g></svg></g><g transform="matrix(1,0,0,1,0,0.28303804226918317)"><svg viewBox="0 0 128.78230923248054 113.2152169076752" height="113.2152169076752" width="128.78230923248054"><g><svg xmlns="http://www.w3.org/2000/svg" xmlns:xlink="http://www.w3.org/1999/xlink" version="1.1" x="0" y="0" viewBox="5 9.886999130249023 91 80" enable-background="new 0 0 100 100" xml:space="preserve" height="113.2152169076752" width="128.78230923248054" class="icon-icon-0" data-fill-palette-color="accent" id="icon-0"><g fill="#e8772e" data-fill-palette-color="accent"><path fill="#e8772e" d="M35.918 89.887c-10.345 0-18.76-9.651-18.76-21.514h8.064c0 7.413 4.798 13.445 10.696 13.445 5.839 0 10.772-6.198 10.772-13.534V31.309c0-11.812 8.382-21.422 18.681-21.422 10.346 0 18.76 9.651 18.76 21.512h-8.062c0-7.413-4.797-13.445-10.697-13.445-5.854 0-10.615 5.991-10.615 13.354v36.976C54.756 80.194 46.303 89.887 35.918 89.887z" data-fill-palette-color="accent"></path><g fill="#e8772e" data-fill-palette-color="accent"><path fill="#e8772e" d="M20.903 34.245C12.12 34.245 5 41.367 5 50.155s7.12 15.91 15.903 15.91c8.783 0 15.901-7.122 15.901-15.91S29.687 34.245 20.903 34.245zM23.971 55.473L23.2 53.341h-4.557l-0.846 2.132h-3.445l4.823-12.555h3.555l4.723 12.555H23.971z" data-fill-palette-color="accent"></path><polygon fill="#e8772e" points="19.553,50.877 22.335,50.877 20.922,46.815   " data-fill-palette-color="accent"></polygon></g><g fill="#e8772e" data-fill-palette-color="accent"><path fill="#e8772e" d="M80.236 50.3h-0.674v2.61h0.738c1.055 0 1.729-0.171 2.016-0.51 0.178-0.199 0.266-0.468 0.26-0.802 0-0.381-0.105-0.677-0.316-0.891C81.984 50.437 81.311 50.3 80.236 50.3z" data-fill-palette-color="accent"></path><path fill="#e8772e" d="M81.406 47.44c0.203-0.202 0.305-0.48 0.305-0.835 0-0.337-0.102-0.62-0.305-0.845-0.252-0.252-0.668-0.378-1.244-0.378h-0.6v2.455h0.6C80.738 47.836 81.154 47.704 81.406 47.44z" data-fill-palette-color="accent"></path><path fill="#e8772e" d="M80.098 33.971c-8.783 0-15.902 7.122-15.902 15.91 0 8.787 7.119 15.908 15.902 15.908S96 58.668 96 49.881C96 41.093 88.881 33.971 80.098 33.971zM84.902 54.284c-0.76 0.792-1.889 1.188-3.383 1.188h-5.211V42.917h4.881c1.248 0 2.17 0.322 2.76 0.964 0.516 0.558 0.775 1.334 0.775 2.326 0 0.556-0.121 1.074-0.365 1.553-0.254 0.469-0.6 0.798-1.037 0.989 0.689 0.074 1.248 0.325 1.678 0.755 0.551 0.542 0.828 1.31 0.828 2.304C85.828 52.842 85.518 53.669 84.902 54.284z" data-fill-palette-color="accent"></path></g></g></svg></g></svg></g></svg></g><defs></defs></svg><rect width="395.5199999999999" height="81.2822425877838" fill="none" stroke="none" visibility="hidden"></rect></g></svg></g></svg>